<svg width="245" height="73" viewBox="0 0 245 73" fill="none" xmlns="http://www.w3.org/2000/svg">
<path d="M243.321 63.9414C243.321 67.7737 240.226 70.8986 236.364 70.8986H8.92839C5.09603 70.8986 1.97119 67.8032 1.97119 63.9414V8.57854C1.97119 4.74618 5.09603 1.62134 8.92839 1.62134H236.364C240.196 1.62134 243.321 4.74618 243.321 8.57854V63.9414Z" fill="white"/>
<path d="M236.393 72.4905H8.9575C4.24075 72.4905 0.378906 68.6581 0.378906 63.9414V8.57858C0.378906 3.86184 4.21127 0 8.9575 0H236.393C241.11 0 244.972 3.83236 244.972 8.57858V63.9414C244.942 68.6581 241.11 72.4905 236.393 72.4905Z" fill="#A6A6A6"/>
<path d="M243.321 63.9414C243.321 67.7737 240.226 70.8986 236.364 70.8986H8.92839C5.09603 70.8986 1.97119 67.8032 1.97119 63.9414V8.57854C1.97119 4.74618 5.09603 1.62134 8.92839 1.62134H236.364C240.196 1.62134 243.321 4.74618 243.321 8.57854V63.9414Z" fill="black"/>
<path d="M54.974 35.8768C54.915 30.0398 59.7497 27.1803 59.9856 27.0623C57.2439 23.0826 52.9989 22.5225 51.4954 22.493C47.9284 22.1098 44.4792 24.6155 42.6515 24.6155C40.7943 24.6155 37.9937 22.5225 34.9868 22.5814C31.0955 22.6404 27.4695 24.8808 25.4943 28.3889C21.3967 35.4935 24.4625 45.9588 28.3833 51.7074C30.3585 54.5374 32.6579 57.6622 35.6648 57.5443C38.6128 57.4264 39.7035 55.6576 43.2706 55.6576C46.7787 55.6576 47.8399 57.5443 50.9058 57.4559C54.0601 57.3969 56.0648 54.6258 57.9515 51.7958C60.2214 48.5825 61.1353 45.3987 61.1647 45.2218C61.1058 45.1923 55.033 42.8635 54.974 35.8768Z" fill="white"/>
<path d="M49.1668 18.6902C50.7587 16.715 51.8495 14.0029 51.5252 11.2908C49.2258 11.3792 46.3663 12.8827 44.7154 14.8283C43.2414 16.5382 41.9443 19.3387 42.2981 21.9624C44.8923 22.1393 47.516 20.6358 49.1668 18.6902Z" fill="white"/>
<path d="M236.392 0H114.582L162.31 72.4905H236.422C241.138 72.4905 245 68.6581 245 63.9414V8.57858C244.941 3.86184 241.109 0 236.392 0Z" fill="url(#paint0_linear_0_2148)"/>
<path d="M97.6616 57.1022H93.5345L91.294 50.027H83.423L81.271 57.1022H77.2617L85.0149 32.9878H89.8201L97.6616 57.1022ZM90.5865 47.0496L88.5524 40.7409C88.3461 40.0924 87.9334 38.5889 87.3438 36.2011H87.2848C87.049 37.2329 86.6657 38.7363 86.1351 40.7409L84.1305 47.0496H90.5865Z" fill="white"/>
<path d="M117.59 48.1994C117.59 51.1474 116.794 53.5058 115.173 55.2156C113.728 56.7485 111.93 57.515 109.808 57.515C107.508 57.515 105.857 56.6896 104.855 55.0387V64.1774H100.993V45.4578C100.993 43.6006 100.934 41.6844 100.846 39.7388H104.236L104.442 42.5099H104.501C105.798 40.4463 107.744 39.385 110.368 39.385C112.431 39.385 114.141 40.181 115.497 41.8318C116.883 43.4237 117.59 45.5463 117.59 48.1994ZM113.64 48.3468C113.64 46.6665 113.257 45.2515 112.49 44.1607C111.665 43.011 110.545 42.4509 109.129 42.4509C108.186 42.4509 107.302 42.7752 106.535 43.3942C105.769 44.0428 105.238 44.8682 105.002 45.8705C104.884 46.3422 104.825 46.7254 104.825 47.0497V49.9387C104.825 51.2064 105.209 52.2676 105.975 53.152C106.742 54.0364 107.773 54.4491 109.012 54.4491C110.456 54.4491 111.606 53.889 112.402 52.7688C113.227 51.6486 113.64 50.1746 113.64 48.3468Z" fill="white"/>
<path d="M137.577 48.1994C137.577 51.1474 136.782 53.5058 135.16 55.2156C133.716 56.7485 131.917 57.515 129.795 57.515C127.495 57.515 125.845 56.6896 124.842 55.0387V64.1774H120.98V45.4578C120.98 43.6006 120.921 41.6844 120.833 39.7388H124.223L124.43 42.5099H124.488C125.786 40.4463 127.731 39.385 130.355 39.385C132.419 39.385 134.128 40.181 135.484 41.8318C136.899 43.4237 137.577 45.5463 137.577 48.1994ZM133.657 48.3468C133.657 46.6665 133.273 45.2515 132.507 44.1607C131.682 43.011 130.561 42.4509 129.146 42.4509C128.203 42.4509 127.319 42.7752 126.552 43.3942C125.786 44.0428 125.284 44.8682 125.019 45.8705C124.901 46.3422 124.842 46.7254 124.842 47.0497V49.9387C124.842 51.2064 125.225 52.2676 125.992 53.152C126.758 54.0069 127.79 54.4491 129.028 54.4491C130.473 54.4491 131.623 53.889 132.419 52.7688C133.244 51.6486 133.657 50.1746 133.657 48.3468Z" fill="white"/>
<path d="M159.953 50.3514C159.953 52.415 159.245 54.0659 157.801 55.363C156.238 56.778 154.027 57.4855 151.227 57.4855C148.633 57.4855 146.539 56.9844 144.977 55.9821L145.861 52.7688C147.542 53.7711 149.428 54.2722 151.433 54.2722C152.878 54.2722 154.027 53.948 154.823 53.2994C155.619 52.6509 156.032 51.7665 156.032 50.6757C156.032 49.7029 155.708 48.8775 155.03 48.1994C154.352 47.5214 153.261 46.9023 151.698 46.3422C147.483 44.7798 145.36 42.4509 145.36 39.444C145.36 37.4688 146.097 35.8474 147.601 34.5798C149.104 33.3122 151.079 32.6931 153.526 32.6931C155.708 32.6931 157.565 33.0763 159.009 33.8428L158.037 36.9971C156.68 36.2602 155.118 35.8769 153.408 35.8769C152.052 35.8769 150.961 36.2012 150.224 36.8792C149.576 37.4688 149.252 38.2058 149.252 39.0607C149.252 40.0041 149.635 40.8 150.372 41.4191C151.02 41.9792 152.17 42.5983 153.88 43.2763C155.943 44.1017 157.476 45.0746 158.449 46.1948C159.481 47.2856 159.953 48.6711 159.953 50.3514Z" fill="white"/>
<path d="M172.775 42.6278H168.501V51.059C168.501 53.211 169.238 54.2723 170.741 54.2723C171.419 54.2723 172.009 54.2133 172.451 54.0954L172.569 57.0434C171.802 57.3381 170.8 57.4855 169.562 57.4855C168.029 57.4855 166.85 57.0139 165.995 56.1C165.14 55.1567 164.698 53.5942 164.698 51.4127V42.6278H162.163V39.7388H164.698V36.555L168.501 35.4053V39.7388H172.775C172.775 39.7093 172.775 42.6278 172.775 42.6278Z" fill="white"/>
<path d="M191.968 48.2876C191.968 50.9703 191.202 53.1518 189.669 54.8616C188.077 56.6304 185.954 57.5148 183.301 57.5148C180.736 57.5148 178.702 56.6599 177.199 54.9795C175.695 53.2992 174.929 51.1472 174.929 48.5824C174.929 45.8998 175.725 43.6888 177.287 41.9495C178.85 40.2397 180.972 39.3848 183.596 39.3848C186.161 39.3848 188.195 40.2397 189.757 41.92C191.202 43.5414 191.968 45.6639 191.968 48.2876ZM187.959 48.3761C187.959 46.7842 187.605 45.4281 186.927 44.2784C186.131 42.8928 184.952 42.2148 183.449 42.2148C181.886 42.2148 180.707 42.8928 179.911 44.2784C179.233 45.4281 178.879 46.8136 178.879 48.4645C178.879 50.0564 179.233 51.4419 179.911 52.5622C180.736 53.9477 181.916 54.6258 183.419 54.6258C184.893 54.6258 186.043 53.9182 186.898 52.5327C187.576 51.324 187.959 49.968 187.959 48.3761Z" fill="white"/>
<path d="M204.525 43.1289C204.142 43.0699 203.729 43.011 203.317 43.011C201.961 43.011 200.899 43.5121 200.162 44.5439C199.514 45.4578 199.189 46.6075 199.189 47.993V57.1317H195.328V45.2219C195.328 43.2173 195.298 41.3896 195.21 39.7387H198.57L198.718 43.0699H198.836C199.248 41.9202 199.897 41.0063 200.781 40.2988C201.636 39.6797 202.58 39.3555 203.582 39.3555C203.936 39.3555 204.26 39.385 204.555 39.4144L204.525 43.1289Z" fill="white"/>
<path d="M221.8 47.5804C221.8 48.2584 221.741 48.848 221.652 49.3197H210.067C210.096 51.0295 210.686 52.3561 211.747 53.2699C212.72 54.0659 213.988 54.4786 215.55 54.4786C217.26 54.4786 218.822 54.2133 220.237 53.6532L220.856 56.3358C219.205 57.0433 217.26 57.3971 215.019 57.3971C212.337 57.3971 210.214 56.6011 208.652 55.0092C207.119 53.4173 206.352 51.2948 206.352 48.6121C206.352 45.9885 207.06 43.807 208.504 42.0677C210.008 40.2104 212.042 39.2671 214.577 39.2671C217.083 39.2671 218.97 40.2104 220.267 42.0677C221.298 43.6006 221.8 45.4283 221.8 47.5804ZM218.115 46.578C218.144 45.4283 217.879 44.4555 217.378 43.6006C216.7 42.5099 215.668 41.9792 214.312 41.9792C213.044 41.9792 212.012 42.5099 211.246 43.5416C210.597 44.3671 210.214 45.3694 210.096 46.5486L218.115 46.578Z" fill="white"/>
<path d="M88.7298 24.3503H86.6957L85.5755 20.8717H81.7137L80.6524 24.3503H78.6772L82.4801 12.4995H84.8385L88.7298 24.3503ZM85.2807 19.4272L84.2784 16.3319C84.1605 16.0076 83.9836 15.2706 83.6888 14.0914H83.6593C83.5414 14.5926 83.3645 15.3296 83.0992 16.3319L82.1264 19.4272H85.2807Z" fill="white"/>
<path d="M98.282 15.8013L95.0392 24.3504H93.182L90.0571 15.8013H92.0912L93.5652 20.3117C93.801 21.0781 94.0074 21.7856 94.1843 22.4637H94.2432C94.3906 21.8446 94.597 21.1371 94.8623 20.3117L96.3068 15.8013C96.2773 15.8013 98.282 15.8013 98.282 15.8013Z" fill="white"/>
<path d="M105.181 24.3501L105.033 23.3773H104.974C104.385 24.1733 103.559 24.5565 102.468 24.5565C100.935 24.5565 99.8447 23.4952 99.8447 22.0507C99.8447 19.9282 101.672 18.8374 104.827 18.8374V18.69C104.827 17.5698 104.237 17.0097 103.058 17.0097C102.203 17.0097 101.466 17.216 100.818 17.6582L100.434 16.4201C101.23 15.9189 102.203 15.6831 103.382 15.6831C105.623 15.6831 106.743 16.8623 106.743 19.2207V22.375C106.743 23.2299 106.772 23.9079 106.861 24.4091L105.181 24.3501ZM104.915 20.1051C102.793 20.1051 101.761 20.6062 101.761 21.8149C101.761 22.6993 102.321 23.1415 103.058 23.1415C104.031 23.1415 104.915 22.4045 104.915 21.4022C104.915 21.4316 104.915 20.1051 104.915 20.1051Z" fill="white"/>
<path d="M110.988 14.3861C110.369 14.3861 109.868 13.885 109.868 13.2364C109.868 12.5879 110.369 12.1162 111.017 12.1162C111.666 12.1162 112.197 12.5879 112.167 13.2364C112.197 13.944 111.695 14.3861 110.988 14.3861ZM111.961 24.3503H110.074V15.8012H111.961V24.3503Z" fill="white"/>
<path d="M117.237 24.3503H115.35V11.8804H117.237V24.3503Z" fill="white"/>
<path d="M125.316 24.3501L125.168 23.3773H125.109C124.52 24.1733 123.694 24.5565 122.603 24.5565C121.07 24.5565 119.98 23.4952 119.98 22.0507C119.98 19.9282 121.807 18.8374 124.962 18.8374V18.69C124.962 17.5698 124.372 17.0097 123.193 17.0097C122.338 17.0097 121.601 17.216 120.953 17.6582L120.569 16.4201C121.365 15.9189 122.338 15.6831 123.517 15.6831C125.758 15.6831 126.878 16.8623 126.878 19.2207V22.375C126.878 23.2299 126.907 23.9079 126.996 24.4091H125.316V24.3501ZM125.05 20.1051C122.928 20.1051 121.896 20.6062 121.896 21.8149C121.896 22.6993 122.456 23.1415 123.193 23.1415C124.166 23.1415 125.05 22.4045 125.05 21.4022V20.1051Z" fill="white"/>
<path d="M134.6 24.5567C133.391 24.5567 132.477 24.0555 131.917 23.0532H131.887L131.77 24.3798H130.148C130.207 23.7018 130.207 22.9058 130.207 22.0804V11.9099H132.123V17.0689H132.153C132.713 16.1255 133.627 15.6538 134.865 15.6538C136.929 15.6538 138.373 17.4226 138.373 19.9873C138.373 22.611 136.781 24.5567 134.6 24.5567ZM134.216 17.1278C133.126 17.1278 132.123 18.0712 132.123 19.3977V20.9012C132.123 22.0804 133.008 23.0532 134.187 23.0532C135.602 23.0532 136.457 21.9035 136.457 20.0463C136.457 18.307 135.572 17.1278 134.216 17.1278Z" fill="white"/>
<path d="M143.09 24.3503H141.204V11.8804H143.09V24.3503Z" fill="white"/>
<path d="M153.438 20.5474H147.748C147.778 22.1688 148.868 23.0826 150.431 23.0826C151.286 23.0826 152.052 22.9352 152.73 22.6699L153.025 23.9965C152.229 24.3503 151.256 24.5271 150.165 24.5271C147.483 24.5271 145.92 22.8468 145.92 20.2231C145.92 17.5994 147.542 15.6243 149.959 15.6243C152.141 15.6243 153.526 17.2456 153.526 19.6925C153.497 20.0167 153.497 20.3115 153.438 20.5474ZM151.698 19.1913C151.698 17.8647 151.02 16.9509 149.812 16.9509C148.721 16.9509 147.866 17.8942 147.748 19.1913H151.698Z" fill="white"/>
<path d="M164.964 24.5567C162.458 24.5567 160.837 22.6995 160.837 20.1642C160.837 17.511 162.488 15.6538 165.111 15.6538C167.558 15.6538 169.239 17.4226 169.239 20.0463C169.209 22.6994 167.499 24.5567 164.964 24.5567ZM165.023 17.0099C163.637 17.0099 162.783 18.307 162.783 20.0758C162.783 21.8445 163.667 23.1122 165.023 23.1122C166.379 23.1122 167.263 21.7266 167.263 20.0463C167.234 18.3365 166.35 17.0099 165.023 17.0099Z" fill="white"/>
<path d="M179.409 24.3502H177.522V19.4271C177.522 17.9237 176.932 17.1572 175.812 17.1572C174.692 17.1572 173.896 18.13 173.896 19.2503V24.3502H172.009V18.248C172.009 17.4815 171.98 16.6855 171.95 15.8011H173.631L173.719 17.1277H173.778C174.279 16.2139 175.34 15.6243 176.49 15.6243C178.288 15.6243 179.468 17.0098 179.468 19.2208L179.409 24.3502Z" fill="white"/>
<path d="M191.849 17.2458H189.756V21.4024C189.756 22.4637 190.11 22.9943 190.876 22.9943C191.2 22.9943 191.495 22.9648 191.731 22.9058L191.79 24.3504C191.407 24.4977 190.935 24.5567 190.316 24.5567C188.812 24.5567 187.928 23.7313 187.928 21.5793V17.2752H186.69V15.8012H187.928V14.2388L189.785 13.6787V15.8012H191.878V17.2458H191.849Z" fill="white"/>
<path d="M201.902 24.3503H199.986V19.4861C199.986 17.9532 199.396 17.1867 198.276 17.1867C197.303 17.1867 196.389 17.8647 196.389 19.2208V24.3503H194.473V11.8804H196.389V17.0098H196.419C197.008 16.0665 197.893 15.6243 198.983 15.6243C200.782 15.6243 201.902 17.0393 201.902 19.2798V24.3503Z" fill="white"/>
<path d="M211.63 20.5474H205.911C205.941 22.1688 207.031 23.0826 208.594 23.0826C209.449 23.0826 210.215 22.9352 210.893 22.6699L211.188 23.9965C210.392 24.3503 209.419 24.5271 208.329 24.5271C205.646 24.5271 204.083 22.8468 204.083 20.2231C204.083 17.5994 205.705 15.6243 208.122 15.6243C210.304 15.6243 211.689 17.2456 211.689 19.6925C211.689 20.0167 211.66 20.3115 211.63 20.5474ZM209.891 19.1913C209.891 17.8647 209.213 16.9509 208.004 16.9509C206.914 16.9509 206.059 17.8942 205.941 19.1913H209.891Z" fill="white"/>
<defs>
<linearGradient id="paint0_linear_0_2148" x1="179.754" y1="72.6923" x2="179.754" y2="7.35094" gradientUnits="userSpaceOnUse">
<stop stop-color="#1A1A1A" stop-opacity="0.1"/>
<stop offset="0.1235" stop-color="#212121" stop-opacity="0.1506"/>
<stop offset="0.3085" stop-color="#353535" stop-opacity="0.2265"/>
<stop offset="0.5321" stop-color="#575757" stop-opacity="0.3181"/>
<stop offset="0.7834" stop-color="#858585" stop-opacity="0.4212"/>
<stop offset="1" stop-color="#B3B3B3" stop-opacity="0.51"/>
</linearGradient>
</defs>
</svg>
