<svg width="32" height="32" viewBox="0 0 32 32" fill="none" xmlns="http://www.w3.org/2000/svg">
<path fill-rule="evenodd" clip-rule="evenodd" d="M15.3337 11.3333C15.3337 12.5279 14.8843 13.6186 14.1457 14.4439C15.1825 15.1814 15.958 16.2293 16.3602 17.4364C16.7625 18.6434 16.7706 19.9471 16.3834 21.1591C15.9962 22.3711 15.2338 23.4286 14.2063 24.1789C13.1788 24.9292 11.9393 25.3335 10.667 25.3333H4.66699C4.13656 25.3333 3.62785 25.1225 3.25278 24.7475C2.87771 24.3724 2.66699 23.8637 2.66699 23.3333V7.33325C2.66699 6.80282 2.87771 6.29411 3.25278 5.91904C3.62785 5.54397 4.13656 5.33325 4.66699 5.33325H10.0003C11.4148 5.33325 12.7714 5.89515 13.7716 6.89535C14.7718 7.89554 15.3337 9.2521 15.3337 10.6666V11.3333ZM5.33366 13.3333V7.99992H10.0003C10.7076 7.99992 11.3858 8.28087 11.8859 8.78097C12.386 9.28106 12.667 9.95934 12.667 10.6666V11.3333C12.667 11.8637 12.4563 12.3724 12.0812 12.7475C11.7061 13.1225 11.1974 13.3333 10.667 13.3333H5.33366ZM5.33366 15.9999H10.667C11.551 15.9999 12.3989 16.3511 13.024 16.9762C13.6491 17.6014 14.0003 18.4492 14.0003 19.3333C14.0003 20.2173 13.6491 21.0652 13.024 21.6903C12.3989 22.3154 11.551 22.6666 10.667 22.6666H5.33366V15.9999Z" fill="#DCD3D3"/>
<path d="M20 8.00008C20 7.64646 20.1405 7.30732 20.3905 7.05727C20.6406 6.80722 20.9797 6.66675 21.3333 6.66675H26C26.3536 6.66675 26.6928 6.80722 26.9428 7.05727C27.1929 7.30732 27.3333 7.64646 27.3333 8.00008C27.3333 8.3537 27.1929 8.69284 26.9428 8.94289C26.6928 9.19294 26.3536 9.33341 26 9.33341H21.3333C20.9797 9.33341 20.6406 9.19294 20.3905 8.94289C20.1405 8.69284 20 8.3537 20 8.00008Z" fill="#C4B6B6"/>
<path fill-rule="evenodd" clip-rule="evenodd" d="M23.667 10.6665C19.879 10.6665 16.667 13.5758 16.667 17.3332V18.6665C16.667 22.4238 19.879 25.3332 23.667 25.3332C25.687 25.3332 27.1497 24.7518 28.1297 24.1198C28.719 23.7412 29.1817 23.2798 29.627 22.7492C29.8208 22.4582 29.8925 22.1027 29.8267 21.7593C29.7609 21.416 29.5629 21.1122 29.2753 20.9134C28.9877 20.7146 28.6335 20.6367 28.2891 20.6965C27.9446 20.7564 27.6374 20.9491 27.4337 21.2332C27.2221 21.488 26.9698 21.706 26.687 21.8785C26.1123 22.2478 25.1457 22.6665 23.667 22.6665C21.1963 22.6665 19.3337 20.7998 19.3337 18.6665H29.3337C29.6873 18.6665 30.0264 18.526 30.2765 18.276C30.5265 18.0259 30.667 17.6868 30.667 17.3332C30.667 13.5758 27.455 10.6665 23.667 10.6665ZM27.751 15.9998C27.1643 14.4785 25.6017 13.3332 23.667 13.3332C21.7323 13.3332 20.1697 14.4785 19.583 15.9998H27.751Z" fill="#C4B6B6"/>
</svg>
