<svg width="135" height="75" viewBox="0 0 135 75" fill="none" xmlns="http://www.w3.org/2000/svg">
<g clip-path="url(#clip0_4_7)">
<path d="M19.0809 13.4583H16.7285V15.8102H19.0809V13.4583Z" fill="white"/>
<path d="M19.0809 10.9756H16.7285V13.4582H19.0809V10.9756Z" fill="black"/>
<path d="M23.7848 10.9757H26.1372V8.62378H23.7848H21.4324H19.0801V10.9757H21.4324H23.7848Z" fill="black"/>
<path d="M28.6209 10.9756H26.2686V13.4582H28.6209V10.9756Z" fill="black"/>
<path d="M30.9735 13.4583H28.6211V15.8102H30.9735V13.4583Z" fill="black"/>
<path d="M33.326 10.9756H30.9736V13.4582H33.326V10.9756Z" fill="black"/>
<path d="M38.1606 8.62378H35.6776H35.4162H33.3252V10.9757H35.4162H35.6776H38.1606H40.513V8.62378H38.1606Z" fill="black"/>
<path d="M42.8651 10.9756H40.5127V13.4582H42.8651V10.9756Z" fill="black"/>
<path d="M42.8662 13.4583V15.8102V18.1621V22.9966H45.3493V18.1621V15.8102V13.4583H42.8662Z" fill="black"/>
<path d="M42.8651 22.9966H40.5127V25.3485H42.8651V22.9966Z" fill="black"/>
<path d="M40.5135 25.3486H38.1611V27.7006H40.5135V25.3486Z" fill="black"/>
<path d="M38.1608 27.7004H35.6777V30.0524H38.1608V27.7004Z" fill="black"/>
<path d="M35.6776 30.0522H33.3252V32.4042H35.6776V30.0522Z" fill="black"/>
<path d="M33.326 32.5349H30.9736V34.8868H33.326V32.5349Z" fill="black"/>
<path d="M30.9735 34.8867H28.6211V37.2386H30.9735V34.8867Z" fill="black"/>
<path d="M28.6209 32.5349H26.2686V34.8868H28.6209V32.5349Z" fill="black"/>
<path d="M26.2682 30.0522H23.7852V32.5348H26.2682V30.0522Z" fill="black"/>
<path d="M23.785 27.7004H21.4326V30.0524H23.785V27.7004Z" fill="black"/>
<path d="M21.4324 25.3486H19.0801V27.7006H21.4324V25.3486Z" fill="black"/>
<path d="M19.0809 22.9966H16.7285V25.3485H19.0809V22.9966Z" fill="black"/>
<path d="M16.7282 20.514V18.1621V15.8102V13.4583H14.2451V15.8102V18.1621V20.514V22.8659H16.7282V20.514Z" fill="black"/>
<path d="M40.5136 13.4579V10.9753H38.1612H35.6782H35.1554H33.3258V13.4579H30.9734V15.8098H28.6211V13.4579H26.2687V10.9753H23.7856H21.4333V13.4579H19.0809V15.8098H16.7285V22.9962H19.0809V25.3482H21.4333V27.7001H23.7856V30.052H26.2687V32.5346H28.6211V34.8865H30.9734V32.5346H33.3258V30.052H35.6782V27.7001H38.1612V25.3482H40.5136V22.9962H42.866V13.4579H40.5136Z" fill="#CE0002"/>
<path d="M21.4324 10.9756H19.0801V13.3275H21.4324V10.9756Z" fill="white"/>
<path d="M78.6744 13.4583V10.9757H76.322V8.62378H73.9697H71.6173H69.2649V10.9757H66.7819V13.4583H64.4295V10.9757H61.9464V8.62378H59.5941H57.2417H54.8893V10.9757H57.2417V13.4583H54.8893V15.8102H52.5369V13.4583H54.8893V10.9757H52.5369V13.4583H50.1846V15.8102V18.1621V20.514V22.8659H52.5369V25.3485H54.8893V22.8659H52.5369V20.514H54.8893H57.2417H59.5941H61.9464H64.4295H66.7819H69.1342H71.6173H73.9697H76.322H78.6744V22.8659H76.322V25.3485H78.6744V22.8659H81.1575V20.514V18.1621V15.8102V13.4583H78.6744Z" fill="black"/>
<path d="M76.3221 25.3486H73.9697V27.7006H76.3221V25.3486Z" fill="black"/>
<path d="M73.9696 27.7004H71.6172V30.0524H73.9696V27.7004Z" fill="black"/>
<path d="M71.6169 30.0522H69.1338V32.4042H71.6169V30.0522Z" fill="black"/>
<path d="M69.1336 32.4043H66.7812V34.8869H69.1336V32.4043Z" fill="black"/>
<path d="M66.7821 34.8867H64.4297V37.2386H66.7821V34.8867Z" fill="black"/>
<path d="M64.4293 32.4043H61.9463V34.8869H64.4293V32.4043Z" fill="black"/>
<path d="M61.9461 30.0522H59.5938V32.4042H61.9461V30.0522Z" fill="black"/>
<path d="M59.5946 27.7004H57.2422V30.0524H59.5946V27.7004Z" fill="black"/>
<path d="M57.242 25.3486H54.8896V27.7006H57.242V25.3486Z" fill="black"/>
<path d="M54.8895 13.4583H52.5371V15.8102H54.8895V13.4583Z" fill="white"/>
<path d="M76.3222 20.5139H73.9698H71.6175H69.1344H66.782H64.4297H61.9466H59.5942H57.2418H54.8895H52.5371V22.8658H54.8895V25.3484H57.2418V27.7003H59.5942V30.0522H61.9466V32.4042H64.4297V34.8867H66.782V32.4042H69.1344V30.0522H71.6175V27.7003H73.9698V25.3484H76.3222V22.8658H78.6746V20.5139H76.3222Z" fill="#CE0002"/>
<path d="M57.241 10.9756H54.8887V13.3275H57.241V10.9756Z" fill="white"/>
<path d="M90.6971 11.1064H88.3447V13.4584H90.6971V11.1064Z" fill="black"/>
<path d="M114.482 13.4583V10.9757H112.13V8.62378H109.777H107.425H105.073V10.9757H102.589V13.4583H100.237V10.9757H97.8847V8.75444H95.4017H95.0096H93.0493H90.6969V11.1064H93.0493V13.4583H90.6969V15.8102H88.3446V13.4583H85.9922V15.8102V18.1621V20.514V22.8659H88.3446V25.3485H90.6969V27.7004H93.0493V30.0523H94.6175H95.4017H95.5324V32.4043H97.8847V34.8868H100.237V37.2388H102.589V34.8868H100.237V32.4043H97.8847V30.0523H100.237H102.589H104.942V32.4043H102.589V34.8868H104.942V32.4043H107.425V30.0523H109.777V27.7004H112.13V25.3485H114.482V22.8659H116.965V20.514V18.1621V15.8102V13.4583H114.482Z" fill="black"/>
<path d="M90.6971 13.4583H88.3447V15.8102H90.6971V13.4583Z" fill="white"/>
<path d="M102.59 32.4043H100.237V34.8869H102.59V32.4043Z" fill="#CE0002"/>
<path d="M100.237 30.0522H97.8848V32.4042H100.237V30.0522Z" fill="#CE0002"/>
<path d="M102.59 30.0522H100.237V32.4042H102.59V30.0522Z" fill="#CE0002"/>
<path d="M104.942 30.0522H102.59V32.4042H104.942V30.0522Z" fill="#CE0002"/>
<path d="M93.0496 11.1064H90.6973V13.4584H93.0496V11.1064Z" fill="white"/>
<path d="M13.5911 57.3607V55.9234H12.1536V57.3607V58.798V60.2352V61.6725V63.1098V64.5471V65.9844H13.5911V67.4216H12.1536H10.716H9.27844H7.84088V65.9844H9.27844V64.5471V63.1098V61.6725V60.2352V58.798V57.3607V55.9234H7.84088V57.3607H6.40332V55.9234V54.4861V53.0488H7.84088H9.27844H10.716H12.1536H13.5911H15.0287V54.4861V55.9234V57.3607H13.5911Z" fill="black"/>
<path d="M24.8296 67.291H23.392H21.9545H20.5169H19.0793V65.8537H17.7725V64.4164V62.9791V61.5418V60.1045V58.6673H19.21V57.23H20.6476H22.0851H23.5227H24.9603H26.3978V58.6673H27.8354V60.1045V61.5418V62.9791V64.4164V65.8537H26.3978V67.291H24.8296ZM23.5227 65.8537H24.9603V64.4164V62.9791V61.5418V60.1045V58.6673H23.5227H22.0851H20.6476V60.1045V61.5418V62.9791V64.4164V65.8537H22.0851H23.5227Z" fill="black"/>
<path d="M36.1996 71.4721H34.7621H33.4552H32.0176H30.5801V70.0349H32.0176H33.4552H34.7621H36.1996V68.7282H37.6372V67.291H36.1996H34.7621H33.4552H32.0176V65.8537H30.5801V64.4164V62.9791V61.5418V60.1045V58.6673V57.23H32.0176H33.4552V58.6673V60.1045V61.5418V62.9791V64.4164V65.8537H34.7621H36.1996H37.6372V64.4164V62.9791V61.5418V60.1045V58.6673V57.23H39.0748H40.5123V58.6673V60.1045V61.5418V62.9791V64.4164V65.8537V67.291V68.7282H39.0748V70.1655H37.6372V71.6028L36.1996 71.4721Z" fill="black"/>
<path d="M49.0079 67.2911H47.5703V65.8538V64.4165H49.0079H50.4454V65.8538V67.2911H49.0079Z" fill="black"/>
<path d="M63.1214 67.291H61.6838H60.2463H58.8087H57.3712V65.8537H55.9336V64.4164V62.9791H57.3712H58.8087V64.4164V65.8537H60.2463H61.6838H63.1214V64.4164V62.9791V61.5419H61.6838V60.1046H60.2463H58.8087V58.6673H57.3712V57.23H55.9336V55.7927V54.3554H57.3712V53.0488H58.8087H60.2463H61.6838H63.1214H64.559V54.4861H65.9965V55.9234V57.3607H64.559H63.1214V55.9234V54.4861H61.6838H60.2463H58.8087V55.9234V57.3607H60.2463V58.798H61.6838H63.1214V60.2352H64.559V61.6725H65.9965V63.1098V64.5471V65.9844H64.559V67.4216L63.1214 67.291Z" fill="black"/>
<path d="M75.929 67.291H74.4915H73.0539V65.8537H71.6163V64.4164V62.9791V61.5419V60.1046V58.6673H70.1788H68.7412V57.23H70.1788H71.6163V55.7927V54.3554H73.0539V53.0488H74.4915V54.4861V55.9234V57.3607H75.929H77.3666V58.798H75.929H74.4915V60.2352V61.6725V63.1098V64.5471V65.9844H75.929V64.5471H77.3666H78.8041V65.9844H77.3666V67.4216L75.929 67.291Z" fill="black"/>
<path d="M85.8615 67.291H84.4239H82.9864H81.5488V65.8537H82.9864V64.4164V62.9791V61.5418V60.1045V58.6673H81.5488V57.23H82.9864H84.4239V58.6673H85.8615V57.23H87.2991H88.7366H90.1742V58.6673H91.6117V60.1045V61.5418H90.1742H88.7366V60.1045V58.6673H87.2991V60.1045H85.8615V61.5418V62.9791V64.4164V65.8537H87.2991V67.291H85.8615Z" fill="black"/>
<path d="M101.412 67.291H99.9749H98.5373H97.0997H95.6622V65.8537H94.2246V64.4164V62.9791V61.5418V60.1045V58.6673H95.6622V57.23H97.0997H98.5373H99.9749H101.412H102.85V58.6673H104.288V60.1045V61.5418H102.85H101.412H99.9749H98.5373H97.0997V62.9791V64.4164V65.8537H98.5373H99.9749H101.412V64.4164H102.85H104.288V65.8537H102.85V67.291H101.412ZM99.9749 60.2352H101.412V58.7979H99.9749H98.5373H97.0997V60.2352H98.5373H99.9749Z" fill="black"/>
<path d="M115.658 67.291H114.22V65.8537H112.782V64.4164V62.9791V61.5418H111.345H109.907V62.9791V64.4164V65.8537H111.345H112.782V67.291H111.345H109.907H108.47V65.8537H107.032V64.4164V62.9791V61.5418H108.47V60.1045H109.907H111.345H112.782V58.6673H111.345H109.907H108.47V57.23H109.907H111.345H112.782H114.22V58.6673H115.658V60.1045V61.5418V62.9791V64.4164V65.8537H117.095V67.291H115.658Z" fill="black"/>
<path d="M124.153 65.8537V64.4164V62.9791V61.5418V60.1045H122.715V61.5418V62.9791V64.4164V65.8537V67.291H121.277H119.84V65.8537V64.4164V62.9791V61.5418V60.1045V58.6673V57.23H121.277H122.715H124.153V58.6673H125.59V57.23H127.028H128.465V58.6673H129.903V60.1045V61.5418V62.9791V64.4164V65.8537V67.291H128.465H127.028V65.8537V64.4164V62.9791V61.5418V60.1045H125.59V61.5418V62.9791V64.4164V65.8537H124.153Z" fill="black"/>
</g>
<defs>
<clipPath id="clip0_4_7">
<rect width="135" height="75" fill="white"/>
</clipPath>
</defs>
</svg>
