<svg width="245" height="73" viewBox="0 0 245 73" fill="none" xmlns="http://www.w3.org/2000/svg">
<path d="M235.515 72.5659H9.04975C4.06315 72.5659 0 68.55 0 63.6215V9.91822C0 4.98964 4.06315 0.973763 9.04975 0.973763H235.515C240.502 0.973763 244.565 4.98964 244.565 9.91822V63.6215C244.565 68.55 240.465 72.5659 235.515 72.5659Z" fill="black"/>
<path d="M235.515 2.36071C239.726 2.36071 243.124 5.71944 243.124 9.88135V63.5846C243.124 67.7465 239.726 71.1052 235.515 71.1052H9.04975C4.83884 71.1052 1.44058 67.7465 1.44058 63.5846V9.88135C1.44058 5.71944 4.83884 2.36071 9.04975 2.36071H235.515ZM235.515 0.936897H9.04975C4.06315 0.936897 0 4.95277 0 9.88135V63.5846C0 68.5132 4.06315 72.5291 9.04975 72.5291H235.515C240.502 72.5291 244.565 68.5132 244.565 63.5846V9.88135C244.565 4.95277 240.465 0.936897 235.515 0.936897Z" fill="#A6A6A6"/>
<path d="M85.8799 19.3007C85.8799 20.7975 85.4367 22.0023 84.5502 22.8784C83.5159 23.9372 82.1862 24.4848 80.5609 24.4848C79.0095 24.4848 77.6428 23.9372 76.5716 22.8784C75.4635 21.7832 74.9094 20.4689 74.9094 18.8626C74.9094 17.2562 75.4635 15.9419 76.5716 14.8832C77.6798 13.8245 79.0095 13.2769 80.5609 13.2769C81.3366 13.2769 82.0754 13.4229 82.7772 13.7149C83.479 14.007 84.07 14.4086 84.4763 14.9197L83.5159 15.8689C82.7772 15.0292 81.8168 14.5911 80.524 14.5911C79.3789 14.5911 78.3816 14.9927 77.5689 15.7959C76.7194 16.5991 76.3131 17.6213 76.3131 18.8991C76.3131 20.1769 76.7194 21.1991 77.5689 22.0023C78.4185 22.8054 79.4158 23.207 80.524 23.207C81.7429 23.207 82.7402 22.8054 83.5529 22.0023C84.07 21.4911 84.4024 20.761 84.4763 19.8118H80.524V18.534H85.7691C85.8799 18.7531 85.8799 19.0086 85.8799 19.3007Z" fill="white" stroke="white" stroke-width="0.199309" stroke-miterlimit="10"/>
<path d="M94.2254 14.8103H89.2757V18.2055H93.7452V19.4833H89.2757V22.8785H94.2254V24.1928H87.8721V13.4595H94.2254C94.2254 13.496 94.2254 14.8103 94.2254 14.8103Z" fill="white" stroke="white" stroke-width="0.199309" stroke-miterlimit="10"/>
<path d="M100.139 24.2292H98.7354V14.8101H95.7065V13.4958H103.168V14.8101H100.139V24.2292Z" fill="white" stroke="white" stroke-width="0.199309" stroke-miterlimit="10"/>
<path d="M108.562 24.2292V13.4958H109.965V24.2292H108.562Z" fill="white" stroke="white" stroke-width="0.199309" stroke-miterlimit="10"/>
<path d="M116.171 24.2292H114.768V14.8101H111.739V13.4958H119.2V14.8101H116.171V24.2292Z" fill="white" stroke="white" stroke-width="0.199309" stroke-miterlimit="10"/>
<path d="M133.346 22.8418C132.275 23.9371 130.945 24.4847 129.357 24.4847C127.769 24.4847 126.439 23.9371 125.368 22.8418C124.297 21.7466 123.78 20.4323 123.78 18.8625C123.78 17.2926 124.297 15.9418 125.368 14.8831C126.439 13.7879 127.769 13.2402 129.357 13.2402C130.945 13.2402 132.275 13.7879 133.346 14.8831C134.418 15.9783 134.972 17.2926 134.972 18.8625C134.935 20.4323 134.418 21.7466 133.346 22.8418ZM126.402 21.9291C127.215 22.7323 128.175 23.1339 129.357 23.1339C130.502 23.1339 131.5 22.7323 132.312 21.9291C133.125 21.126 133.531 20.1037 133.531 18.826C133.531 17.5482 133.125 16.5259 132.312 15.7228C131.5 14.9196 130.539 14.518 129.357 14.518C128.175 14.518 127.215 14.9196 126.402 15.7228C125.589 16.5259 125.183 17.5482 125.183 18.826C125.183 20.1037 125.589 21.126 126.402 21.9291Z" fill="white" stroke="white" stroke-width="0.199309" stroke-miterlimit="10"/>
<path d="M136.89 24.2292V13.4958H138.589L143.871 21.8562H143.945L143.871 19.7752V13.4958H145.275V24.2292H143.834L138.294 15.4673H138.22L138.294 17.5482V24.2292H136.89Z" fill="white" stroke="white" stroke-width="0.199309" stroke-miterlimit="10"/>
<path d="M123.409 39.8912C119.161 39.8912 115.689 43.1039 115.689 47.5214C115.689 51.9023 119.161 55.1515 123.409 55.1515C127.656 55.1515 131.166 51.9023 131.166 47.5214C131.166 43.1039 127.693 39.8912 123.409 39.8912ZM123.409 52.1214C121.082 52.1214 119.05 50.2229 119.05 47.5214C119.05 44.7833 121.045 42.9213 123.409 42.9213C125.773 42.9213 127.767 44.7833 127.767 47.5214C127.767 50.2229 125.736 52.1214 123.409 52.1214ZM106.565 39.8912C102.317 39.8912 98.845 43.1039 98.845 47.5214C98.845 51.9023 102.317 55.1515 106.565 55.1515C110.813 55.1515 114.285 51.9023 114.285 47.5214C114.285 43.1039 110.813 39.8912 106.565 39.8912ZM106.565 52.1214C104.238 52.1214 102.206 50.2229 102.206 47.5214C102.206 44.7833 104.238 42.9213 106.565 42.9213C108.892 42.9213 110.924 44.7833 110.924 47.5214C110.887 50.2229 108.892 52.1214 106.565 52.1214ZM86.4709 42.2277V45.4769H94.3017C94.08 47.3023 93.4521 48.6166 92.5287 49.5293C91.3836 50.661 89.6106 51.9023 86.4709 51.9023C81.669 51.9023 77.9013 48.069 77.9013 43.3229C77.9013 38.5769 81.669 34.7436 86.4709 34.7436C89.0565 34.7436 90.9773 35.7658 92.3809 37.0436L94.671 34.7801C92.7133 32.9182 90.1277 31.5309 86.4709 31.5309C79.859 31.5309 74.3184 36.8245 74.3184 43.3594C74.3184 49.8944 79.859 55.188 86.4709 55.188C90.0538 55.188 92.7134 54.0198 94.8188 51.8658C96.9612 49.7483 97.663 46.7182 97.663 44.3087C97.663 43.542 97.5891 42.8483 97.4783 42.3007C97.4783 42.2277 86.4709 42.2277 86.4709 42.2277ZM168.547 44.7467C167.919 43.0309 165.961 39.8912 161.935 39.8912C157.982 39.8912 154.658 42.9944 154.658 47.5214C154.658 51.7928 157.908 55.1515 162.304 55.1515C165.85 55.1515 167.882 53.0341 168.731 51.7928L166.109 50.0769C165.222 51.3547 164.04 52.1944 162.304 52.1944C160.605 52.1944 159.349 51.4277 158.573 49.8944L168.879 45.696C168.916 45.5864 168.547 44.7467 168.547 44.7467ZM158.056 47.2658C157.982 44.3452 160.346 42.8118 162.082 42.8118C163.412 42.8118 164.557 43.469 164.964 44.4182C164.927 44.4547 158.056 47.2658 158.056 47.2658ZM149.671 54.6769H153.07V32.2975H149.671V54.6769ZM144.131 41.5706H144.02C143.244 40.6944 141.804 39.8912 139.957 39.8912C136.115 39.8912 132.569 43.2499 132.569 47.5214C132.569 51.7928 136.115 55.115 139.957 55.115C141.804 55.115 143.244 54.3118 144.02 53.3991H144.131V54.4944C144.131 57.415 142.542 58.9849 140.031 58.9849C137.962 58.9849 136.669 57.5245 136.152 56.2833L133.197 57.488C134.047 59.496 136.3 61.9785 140.031 61.9785C144.02 61.9785 147.344 59.6785 147.344 54.0563V40.3658H144.131V41.5706ZM140.252 52.1214C137.925 52.1214 135.967 50.1864 135.967 47.5214C135.967 44.8198 137.925 42.8848 140.252 42.8848C142.542 42.8848 144.352 44.8563 144.352 47.5214C144.352 50.1864 142.542 52.1214 140.252 52.1214ZM184.43 32.261H176.34V54.6404H179.702V46.1706H184.43C188.197 46.1706 191.854 43.469 191.854 39.234C191.854 34.9626 188.16 32.261 184.43 32.261ZM184.504 43.0674H179.702V35.4007H184.504C187.015 35.4007 188.456 37.4817 188.456 39.234C188.456 40.9499 187.015 43.0674 184.504 43.0674ZM205.41 39.8547C202.973 39.8547 200.424 40.9134 199.39 43.2864L202.382 44.5277C203.009 43.2864 204.228 42.8848 205.484 42.8848C207.22 42.8848 209.03 43.9436 209.03 45.769V45.988C208.402 45.6229 207.11 45.1118 205.484 45.1118C202.271 45.1118 198.946 46.8642 198.946 50.1499C198.946 53.1436 201.606 55.0785 204.561 55.0785C206.851 55.0785 208.107 54.0563 208.883 52.888H208.993V54.6039H212.244V46.0245C212.281 42.0817 209.289 39.8547 205.41 39.8547ZM205.004 52.1214C203.896 52.1214 202.345 51.5737 202.345 50.2229C202.345 48.5071 204.265 47.8134 205.928 47.8134C207.405 47.8134 208.107 48.142 209.03 48.5801C208.735 50.661 206.962 52.1214 205.004 52.1214ZM224.175 40.3293L220.296 50.0404H220.186L216.159 40.3293H212.502L218.523 53.8737L215.088 61.4309H218.634L227.942 40.3293H224.175ZM193.701 54.6769H197.099V32.2975H193.701V54.6769Z" fill="white"/>
<path d="M18.8759 14.4451C18.3588 14.9927 18.0264 15.8689 18.0264 16.9641V56.5753C18.0264 57.6705 18.3219 58.5467 18.8759 59.0943L19.0237 59.2039L41.4818 37.007V36.4959L19.0237 14.299L18.8759 14.4451Z" fill="url(#paint0_linear_0_2120)"/>
<path d="M48.9439 44.418L41.4824 37.0069V36.4957L48.9808 29.0846L49.1655 29.1941L58.0305 34.1957C60.5423 35.6195 60.5423 37.9561 58.0305 39.3799L49.1655 44.3449C49.1285 44.3084 48.9439 44.418 48.9439 44.418Z" fill="url(#paint1_linear_0_2120)"/>
<path d="M49.1282 44.3088L41.482 36.7516L18.9131 59.058C19.7627 59.9342 21.1293 60.0437 22.6807 59.1675L49.1282 44.3088Z" fill="url(#paint2_linear_0_2120)"/>
<path d="M49.1241 29.1943L22.6397 14.3356C21.0883 13.4594 19.7216 13.5689 18.8721 14.4451L41.441 36.7515L49.1241 29.1943Z" fill="url(#paint3_linear_0_2120)"/>
<defs>
<linearGradient id="paint0_linear_0_2120" x1="39.4681" y1="56.972" x2="2.26331" y2="18.8847" gradientUnits="userSpaceOnUse">
<stop stop-color="#00A0FF"/>
<stop offset="0.0066" stop-color="#00A1FF"/>
<stop offset="0.2601" stop-color="#00BEFF"/>
<stop offset="0.5122" stop-color="#00D2FF"/>
<stop offset="0.7604" stop-color="#00DFFF"/>
<stop offset="1" stop-color="#00E3FF"/>
</linearGradient>
<linearGradient id="paint1_linear_0_2120" x1="61.2743" y1="36.7537" x2="6.3448" y2="36.7537" gradientUnits="userSpaceOnUse">
<stop stop-color="#FFE000"/>
<stop offset="0.4087" stop-color="#FFBD00"/>
<stop offset="0.7754" stop-color="#FFA500"/>
<stop offset="1" stop-color="#FF9C00"/>
</linearGradient>
<linearGradient id="paint2_linear_0_2120" x1="29.8366" y1="47.5843" x2="-20.6161" y2="-4.06511" gradientUnits="userSpaceOnUse">
<stop stop-color="#FF3A44"/>
<stop offset="1" stop-color="#C31162"/>
</linearGradient>
<linearGradient id="paint3_linear_0_2120" x1="-1.92289" y1="57.3125" x2="20.6065" y2="34.2489" gradientUnits="userSpaceOnUse">
<stop stop-color="#32A071"/>
<stop offset="0.0685" stop-color="#2DA771"/>
<stop offset="0.4762" stop-color="#15CF74"/>
<stop offset="0.8009" stop-color="#06E775"/>
<stop offset="1" stop-color="#00F076"/>
</linearGradient>
</defs>
</svg>
