<svg width="32" height="32" viewBox="0 0 32 32" fill="none" xmlns="http://www.w3.org/2000/svg">
<path fill-rule="evenodd" clip-rule="evenodd" d="M9.66449 5.42675C11.2405 3.55475 13.4725 2.66675 16.0005 2.66675C18.5872 2.66675 20.8058 3.71208 22.3525 5.61741C23.7258 7.31075 24.5032 9.59608 24.6445 12.2534L24.7672 12.2721L24.7938 12.2761C25.0205 12.3081 25.2912 12.3481 25.5725 12.4027C26.6138 12.6041 28.3912 13.1134 29.0032 15.0214C29.3098 15.9801 29.1565 16.8681 28.6192 17.5721C28.1565 18.1787 27.4952 18.5294 27.0218 18.7414C26.7872 18.8481 26.5525 18.9387 26.3552 19.0147C26.8165 20.2627 27.6192 21.5467 28.5072 22.7094C29.3432 23.8054 29.1218 25.1934 28.6898 26.0987C28.2565 27.0054 27.3205 28.0414 25.9578 28.1001C25.1872 28.1334 24.3778 28.2134 23.5725 28.3601C23.2085 28.4268 22.7792 28.5721 22.2458 28.7921C21.9272 28.9227 21.6352 29.0534 21.3205 29.1934C21.0698 29.3054 20.8058 29.4228 20.5005 29.5534C19.2472 30.0921 17.7072 30.6667 16.0005 30.6667C14.2938 30.6667 12.7538 30.0921 11.5005 29.5534C11.1952 29.4228 10.9298 29.3054 10.6805 29.1934C10.3739 29.0553 10.0655 28.9215 9.75515 28.7921C9.22182 28.5721 8.79249 28.4254 8.42849 28.3587C7.62315 28.2121 6.81382 28.1334 6.04182 28.1001C4.68049 28.0414 3.74315 27.0054 3.31115 26.0987C2.87915 25.1934 2.65782 23.8054 3.49382 22.7094C4.38715 21.5387 5.19382 20.2454 5.65382 18.9894C5.45197 18.91 5.25234 18.8251 5.05515 18.7347C4.59382 18.5187 3.96715 18.1734 3.50449 17.5947C2.98849 16.9467 2.76049 16.1107 2.96315 15.1534C3.39515 13.1041 5.32315 12.5934 6.34182 12.4014C6.63115 12.3481 6.91249 12.3081 7.14849 12.2747L7.19515 12.2681L7.35515 12.2454C7.48715 9.41208 8.25915 7.09475 9.66449 5.42675ZM11.7045 7.14408C10.6872 8.35075 10.0005 10.2907 10.0005 13.1441V13.2827L9.97115 13.4201C9.82315 14.1187 9.28582 14.4454 9.01915 14.5707C8.73915 14.7027 8.43649 14.7681 8.22315 14.8081C8.01515 14.8467 7.78315 14.8787 7.57649 14.9067L7.51515 14.9161C7.28723 14.9462 7.06006 14.9818 6.83382 15.0227C5.81382 15.2134 5.62049 15.4667 5.57115 15.7027C5.53649 15.8721 5.56715 15.9067 5.58449 15.9254L5.58982 15.9307C5.66049 16.0201 5.83115 16.1534 6.18582 16.3187C6.35115 16.3961 6.52582 16.4667 6.71915 16.5454L6.76715 16.5641C6.93649 16.6307 7.13782 16.7121 7.31515 16.7961C7.48982 16.8761 7.78182 17.0227 8.02982 17.2601C8.31782 17.5361 8.66582 18.0747 8.49649 18.7854C8.01115 20.8267 6.78582 22.7921 5.61515 24.3254C5.59734 24.3703 5.59004 24.4186 5.59382 24.4667C5.59382 24.5934 5.62982 24.7667 5.71649 24.9494C5.80449 25.1321 5.91649 25.2721 6.02049 25.3561C6.10582 25.4254 6.15382 25.4361 6.15915 25.4361C7.02715 25.4734 7.95915 25.5641 8.90582 25.7361C9.54982 25.8534 10.1858 26.0854 10.7725 26.3281C11.0965 26.4614 11.4685 26.6267 11.8298 26.7867C12.0818 26.8987 12.3285 27.0081 12.5498 27.1027C13.7485 27.6161 14.8672 28.0001 16.0005 28.0001C17.1338 28.0001 18.2538 27.6161 19.4512 27.1027C19.6725 27.0081 19.9192 26.8974 20.1712 26.7867C20.5312 26.6267 20.9045 26.4614 21.2272 26.3281C21.8138 26.0854 22.4498 25.8534 23.0938 25.7361C24.0405 25.5627 24.9738 25.4734 25.8405 25.4361C25.8485 25.4361 25.8952 25.4254 25.9805 25.3561C26.1094 25.2435 26.213 25.1049 26.2845 24.9494C26.3593 24.7991 26.4011 24.6345 26.4072 24.4667C26.4072 24.3427 26.3765 24.3134 26.3872 24.3281C25.2165 22.7947 23.9898 20.8281 23.5032 18.7854C23.3232 18.0254 23.7352 17.4787 24.0192 17.2254C24.2725 17.0014 24.5685 16.8614 24.7485 16.7827C24.9285 16.7027 25.1312 16.6267 25.3045 16.5614L25.3685 16.5361C25.5725 16.4601 25.7552 16.3894 25.9272 16.3107C26.2872 16.1494 26.4405 16.0254 26.4925 15.9627C26.4878 15.9196 26.4784 15.8772 26.4645 15.8361C26.3432 15.4574 26.0005 15.2014 25.0645 15.0201C24.8525 14.9801 24.6378 14.9481 24.4112 14.9134L24.3605 14.9067C24.1495 14.8781 23.9392 14.8443 23.7298 14.8054C23.4582 14.7578 23.1942 14.6744 22.9445 14.5574C22.6645 14.4187 22.1712 14.0867 22.0298 13.4201L22.0005 13.2827V13.1427C22.0005 10.5427 21.3245 8.58275 20.2818 7.29875C19.2618 6.04008 17.8152 5.33341 16.0005 5.33341C14.1272 5.33341 12.6938 5.96808 11.7032 7.14408H11.7045Z" fill="#C4B6B6"/>
</svg>
